<?xml version="1.0" standalone="no"?>
<!DOCTYPE svg PUBLIC "-//W3C//DTD SVG 20010904//EN"
 "http://www.w3.org/TR/2001/REC-SVG-20010904/DTD/svg10.dtd">
<svg version="1.0" xmlns="http://www.w3.org/2000/svg"
 width="1890.000000pt" height="1417.000000pt" viewBox="0 0 1890.000000 1417.000000"
 preserveAspectRatio="xMidYMid meet">

<g transform="translate(0.000000,1417.000000) scale(0.100000,-0.100000)"
fill="#000000" stroke="none">
<path d="M5820 9805 c-533 -87 -955 -497 -1075 -1045 -25 -114 -31 -382 -12
-505 33 -207 108 -399 224 -574 114 -172 332 -357 524 -445 305 -140 668 -157
984 -46 216 76 480 257 522 357 30 74 4 153 -73 222 -69 61 -124 84 -189 79
-58 -5 -99 -27 -210 -114 -137 -106 -262 -152 -440 -161 -413 -20 -731 206
-851 604 -23 75 -27 112 -31 253 -4 138 -2 181 15 262 61 293 251 524 516 623
147 55 361 67 511 29 104 -27 215 -90 316 -180 131 -116 232 -118 360 -5 121
106 108 223 -37 346 -176 149 -359 243 -571 290 -97 22 -375 28 -483 10z"/>
<path d="M10001 9759 c-51 -17 -76 -32 -122 -78 -47 -48 -61 -69 -78 -125 -21
-67 -21 -81 -21 -1086 0 -988 1 -1020 20 -1082 40 -129 133 -205 280 -228 84
-13 561 -13 710 0 324 29 555 133 771 349 183 183 298 407 355 696 27 135 25
415 -4 551 -24 113 -80 281 -119 358 -141 281 -398 506 -683 600 -173 57 -195
59 -635 62 -392 4 -413 3 -474 -17z m799 -449 c312 -38 524 -207 610 -485 67
-219 65 -512 -5 -723 -76 -228 -248 -390 -482 -454 -69 -19 -111 -22 -370 -26
l-293 -4 0 851 0 851 228 0 c125 0 266 -5 312 -10z"/>
<path d="M8145 9055 c-82 -18 -217 -69 -274 -101 -285 -164 -467 -438 -503
-757 -60 -532 344 -1026 880 -1076 361 -33 706 132 907 434 64 95 96 164 132
284 24 78 27 102 27 251 0 142 -3 177 -22 250 -91 336 -344 595 -679 696 -76
23 -110 27 -248 30 -111 2 -179 -1 -220 -11z m340 -420 c122 -32 240 -124 298
-232 89 -167 89 -449 0 -616 -37 -69 -126 -158 -191 -191 -146 -74 -342 -76
-489 -5 -71 33 -174 141 -211 219 -63 134 -79 337 -36 480 52 177 181 305 347
346 73 17 212 17 282 -1z"/>
<path d="M13040 9051 c-113 -25 -202 -59 -297 -112 -108 -61 -271 -224 -332
-332 -191 -340 -166 -803 60 -1108 197 -266 552 -412 918 -378 213 20 450 128
593 270 61 61 76 99 63 167 -10 55 -104 145 -178 168 -76 24 -126 9 -228 -68
-43 -32 -108 -73 -146 -90 -61 -29 -79 -32 -183 -36 -302 -10 -494 108 -564
347 -9 30 -16 65 -16 78 l0 23 608 0 c668 0 667 0 749 60 92 68 114 177 68
348 -90 335 -310 561 -640 655 -103 29 -358 34 -475 8z m375 -406 c124 -33
224 -115 284 -233 l31 -62 -485 0 c-267 0 -485 2 -485 5 0 21 60 116 98 157
67 71 149 115 257 138 69 14 237 11 300 -5z"/>
<path d="M8797 7016 c-83 -31 -126 -101 -127 -205 0 -169 79 -240 255 -229
137 9 197 77 197 224 0 146 -65 214 -211 221 -49 2 -90 -2 -114 -11z"/>
<path d="M8010 6989 c-323 -84 -519 -352 -520 -711 l0 -58 -87 0 c-170 -1
-243 -73 -231 -230 6 -74 33 -126 81 -158 36 -24 52 -27 138 -30 l98 -4 3
-656 3 -657 27 -47 c40 -67 97 -93 203 -93 101 1 157 28 195 95 l25 45 3 658
3 657 125 0 c167 0 216 20 255 105 21 46 25 138 8 196 -14 45 -61 92 -108 108
-19 6 -90 11 -159 11 l-125 0 5 93 c9 161 55 219 214 266 133 39 184 100 184
222 0 178 -121 246 -340 188z"/>
<path d="M9665 6956 c-16 -7 -41 -26 -55 -41 -22 -23 -25 -36 -25 -98 1 -47 6
-83 17 -102 9 -17 172 -250 362 -519 190 -268 346 -492 346 -497 0 -6 -169
-248 -375 -539 -207 -291 -382 -545 -390 -564 -20 -47 -19 -120 1 -162 10 -21
35 -45 63 -62 41 -24 56 -27 131 -27 106 1 173 23 234 76 26 23 158 199 313
417 147 207 279 394 294 414 l26 37 297 -419 c163 -230 311 -431 328 -445 49
-41 101 -64 178 -77 126 -22 224 14 261 96 23 50 24 81 4 136 -8 23 -184 281
-391 572 -207 292 -377 536 -380 542 -2 6 152 229 341 496 190 267 354 505
366 530 29 60 30 140 3 177 -39 52 -70 67 -147 71 -122 6 -264 -43 -325 -113
-15 -17 -142 -192 -281 -388 -140 -197 -257 -355 -261 -350 -3 4 -116 163
-250 353 -134 190 -259 362 -279 383 -66 71 -190 117 -311 117 -36 -1 -78 -7
-95 -14z"/>
<path d="M8791 6208 c-47 -16 -94 -66 -109 -115 -9 -30 -12 -238 -12 -819 0
-739 1 -781 19 -820 44 -96 168 -137 298 -99 58 17 103 61 124 122 11 31 14
186 14 813 0 773 0 775 -22 822 -14 30 -36 56 -63 74 -37 24 -53 28 -128 31
-48 1 -102 -3 -121 -9z"/>
</g>
</svg>
