<?xml version="1.0" standalone="no"?>
<!DOCTYPE svg PUBLIC "-//W3C//DTD SVG 20010904//EN"
 "http://www.w3.org/TR/2001/REC-SVG-20010904/DTD/svg10.dtd">
<svg version="1.0" xmlns="http://www.w3.org/2000/svg"
 width="4000.000000pt" height="3000.000000pt" viewBox="0 0 4000.000000 3000.000000"
 preserveAspectRatio="xMidYMid meet">

<g transform="translate(0.000000,3000.000000) scale(0.100000,-0.100000)"
fill="#000000" stroke="none">
<path d="M5310 26373 c-332 -14 -630 -62 -985 -159 -547 -150 -1102 -405
-1578 -725 -548 -368 -1048 -861 -1434 -1413 -321 -459 -561 -937 -743 -1486
-195 -585 -249 -934 -266 -1719 -10 -454 13 -833 71 -1146 170 -925 584 -1860
1121 -2531 479 -600 1210 -1192 1877 -1520 1388 -683 3142 -720 4545 -98 457
203 929 487 1319 794 146 115 387 357 447 448 173 263 140 583 -89 869 -163
203 -434 398 -645 465 -66 20 -94 23 -235 22 -148 0 -166 -2 -245 -28 -164
-55 -275 -123 -630 -390 -311 -233 -416 -301 -635 -412 -232 -117 -440 -189
-690 -239 -455 -92 -1014 -97 -1470 -15 -1294 234 -2240 1117 -2650 2471 -48
161 -78 303 -94 449 -32 295 -47 1173 -23 1370 85 690 360 1349 788 1890 90
113 385 407 504 502 649 515 1384 746 2310 725 471 -10 791 -76 1139 -235 305
-139 583 -324 901 -597 224 -192 394 -295 575 -347 119 -33 287 -31 409 6 165
50 326 146 511 307 333 288 430 588 295 912 -102 244 -384 529 -865 875 -553
396 -1132 667 -1783 833 -222 57 -313 72 -542 93 -320 30 -885 43 -1210 29z"/>
<path d="M22635 26210 c-131 -11 -233 -33 -357 -76 -207 -72 -324 -150 -504
-336 -178 -184 -234 -272 -300 -475 -45 -139 -61 -241 -76 -487 -19 -293 -19
-7757 0 -8091 15 -276 31 -386 77 -523 139 -415 436 -706 855 -840 130 -41
265 -69 393 -81 235 -23 860 -34 1572 -28 958 8 1262 23 1675 83 1122 162
1961 568 2751 1332 733 708 1198 1524 1469 2577 137 533 165 783 165 1475 0
820 -42 1132 -241 1792 -63 208 -145 446 -221 638 -340 859 -1048 1707 -1883
2255 -375 246 -700 401 -1155 551 -515 170 -728 203 -1423 224 -437 13 -2672
21 -2797 10z m2660 -1919 c371 -20 532 -42 813 -112 734 -181 1306 -568 1690
-1142 308 -460 480 -1007 554 -1757 21 -213 17 -863 -5 -1070 -89 -799 -281
-1343 -650 -1833 -106 -141 -284 -328 -422 -444 -365 -307 -896 -556 -1345
-632 -225 -38 -666 -55 -1735 -66 -297 -3 -602 -8 -677 -11 l-138 -6 0 3547 0
3548 858 -6 c471 -3 947 -10 1057 -16z"/>
<path d="M14866 23250 c-66 -5 -151 -14 -190 -20 -318 -49 -1001 -295 -1292
-465 -444 -260 -863 -621 -1178 -1015 -308 -385 -524 -778 -682 -1245 -270
-792 -291 -1610 -63 -2405 315 -1101 1111 -2050 2144 -2557 980 -481 2084
-543 3135 -177 746 259 1415 752 1900 1399 333 444 516 810 684 1367 109 358
121 483 113 1178 -6 526 -12 601 -72 847 -108 445 -312 909 -568 1293 -506
758 -1239 1323 -2105 1624 -298 103 -499 147 -762 166 -198 14 -917 21 -1064
10z m829 -1750 c61 -6 150 -17 200 -26 256 -43 591 -206 846 -412 108 -87 293
-282 371 -393 169 -236 297 -583 352 -954 54 -362 45 -814 -25 -1160 -90 -448
-242 -743 -542 -1052 -261 -268 -463 -398 -775 -496 -244 -78 -454 -109 -737
-109 -292 0 -523 37 -773 124 -263 90 -439 204 -667 433 -359 358 -513 646
-615 1155 -78 385 -82 883 -10 1228 109 526 398 995 796 1293 180 134 414 251
622 309 94 27 255 54 372 63 106 8 484 6 585 -3z"/>
<path d="M35375 23249 c-481 -36 -1026 -198 -1513 -449 -321 -166 -583 -371
-938 -732 -342 -348 -513 -576 -675 -901 -240 -485 -386 -1029 -430 -1607 -15
-199 -7 -658 15 -840 88 -728 331 -1393 699 -1915 131 -186 220 -289 411 -480
319 -318 595 -516 1001 -720 480 -241 957 -382 1535 -452 182 -22 782 -25 955
-5 908 106 1831 525 2428 1102 241 232 318 384 304 603 -11 182 -77 308 -252
482 -214 215 -417 331 -648 371 -242 42 -412 -28 -867 -357 -300 -218 -646
-400 -835 -442 -38 -9 -124 -20 -190 -26 -845 -72 -1502 66 -1964 414 -119 90
-284 260 -374 385 -180 253 -343 684 -364 962 l-6 87 2374 4 c1672 3 2420 7
2529 16 376 28 511 62 673 171 257 171 384 353 444 632 26 122 23 380 -6 553
-58 350 -198 776 -367 1120 -408 832 -1074 1444 -1944 1788 -396 156 -624 207
-1068 237 -177 12 -765 11 -927 -1z m650 -1699 c377 -16 524 -43 747 -138 334
-141 607 -369 812 -676 57 -85 246 -440 246 -462 0 -9 -3757 3 -3918 12 l-113
7 6 26 c10 42 81 175 154 291 245 386 525 627 908 784 239 98 447 143 713 155
91 5 179 9 195 9 17 1 129 -3 250 -8z"/>
<path d="M17410 14746 c-273 -49 -496 -235 -588 -489 -60 -165 -81 -350 -63
-550 37 -403 188 -636 483 -742 124 -45 194 -56 388 -62 639 -19 939 205 1001
747 15 130 7 367 -16 474 -72 342 -249 521 -595 603 -91 21 -134 25 -320 28
-152 3 -237 0 -290 -9z"/>
<path d="M14460 14683 c-193 -14 -510 -87 -735 -168 -261 -93 -556 -253 -778
-422 -131 -100 -390 -359 -490 -490 -270 -356 -453 -769 -547 -1233 -50 -245
-62 -373 -67 -681 l-5 -287 -282 -5 c-310 -5 -410 -17 -561 -68 -267 -90 -418
-264 -470 -544 -26 -136 -16 -414 18 -546 62 -238 186 -403 378 -504 117 -61
230 -76 692 -91 l217 -7 1 -86 c0 -47 6 -1278 13 -2736 l13 -2650 58 -100 c88
-152 127 -205 198 -271 77 -72 149 -116 249 -150 156 -53 397 -75 598 -55 378
37 548 152 728 491 l50 95 6 1525 c3 839 9 2068 13 2731 l6 1206 421 6 c446 6
565 15 714 53 187 47 304 132 396 289 95 162 131 342 123 610 -8 245 -34 343
-132 480 -110 155 -275 265 -434 291 -135 21 -428 34 -778 34 l-323 0 0 54 c0
85 19 401 31 506 20 189 72 361 143 478 127 209 307 317 791 473 399 128 597
306 676 604 30 112 38 391 15 521 -58 335 -242 543 -546 618 -122 29 -261 40
-400 29z"/>
<path d="M21106 14509 c-176 -24 -237 -49 -358 -145 -154 -124 -178 -183 -178
-444 0 -349 12 -388 217 -686 207 -303 728 -1047 1418 -2024 650 -921 1008
-1432 1229 -1754 l156 -229 -19 -31 c-110 -174 -765 -1111 -1636 -2341 -1062
-1500 -1517 -2167 -1553 -2276 -33 -99 -45 -202 -39 -334 10 -238 71 -362 238
-491 84 -64 213 -130 294 -151 100 -25 493 -25 653 0 215 34 393 102 549 209
131 91 201 171 549 633 340 452 541 730 1399 1940 320 451 631 889 690 973 86
119 111 150 121 140 6 -7 341 -479 744 -1048 793 -1119 1105 -1555 1437 -2003
317 -429 390 -517 483 -586 150 -112 317 -187 523 -236 479 -114 871 -51 1097
175 90 90 132 158 178 293 32 90 36 113 35 197 -1 127 -35 244 -108 365 -152
256 -786 1176 -1660 2410 -861 1215 -1494 2124 -1495 2144 0 36 565 857 1480
2151 890 1259 1395 1992 1460 2120 69 137 107 350 90 504 -17 150 -52 219
-168 336 -131 132 -223 168 -475 191 -467 42 -1074 -146 -1353 -418 -86 -83
-280 -347 -1106 -1504 -528 -740 -714 -997 -906 -1254 -138 -183 -282 -365
-290 -365 -4 0 -54 67 -111 148 -1674 2371 -2004 2825 -2148 2963 -212 202
-521 343 -908 414 -107 20 -427 28 -529 14z"/>
<path d="M17487 11379 c-252 -17 -353 -62 -508 -227 -147 -157 -184 -250 -199
-507 -20 -341 -32 -2263 -27 -4115 7 -2251 11 -2354 91 -2515 141 -281 451
-448 836 -448 285 1 529 78 687 217 97 87 192 235 227 357 49 171 58 810 53
3839 -4 2588 -6 2700 -42 2845 -35 136 -129 286 -236 375 -149 124 -259 163
-498 180 -162 11 -212 11 -384 -1z"/>
</g>
</svg>
